<svg xmlns="http://www.w3.org/2000/svg" xmlns:xlink="http://www.w3.org/1999/xlink" width="54.007" height="40.057" viewBox="0 0 54.007 40.057">
  <defs>
    <clipPath id="clip-path">
      <rect id="Rectangle_905" data-name="Rectangle 905" width="54.007" height="40.057" transform="translate(0 0)" fill="none" stroke="#adadad" stroke-width="1"/>
    </clipPath>
  </defs>
  <g id="Group_4562" data-name="Group 4562" transform="translate(0 0)">
    <g id="Group_4561" data-name="Group 4561" clip-path="url(#clip-path)">
      <path id="Path_15063" data-name="Path 15063" d="M10.844,6.461a9.5,9.5,0,1,1-4.38,12.7A9.5,9.5,0,0,1,10.844,6.461Z" fill="none" stroke="#adadad" stroke-width="1"/>
      <path id="Path_15064" data-name="Path 15064" d="M34.844,6.461a9.5,9.5,0,1,1-4.38,12.7A9.5,9.5,0,0,1,34.844,6.461Z" fill="none" stroke="#adadad" stroke-width="1"/>
      <line id="Line_441" data-name="Line 441" x2="10.074" y2="20.677" transform="translate(6.468 19.161)" fill="none" stroke="#adadad" stroke-width="1"/>
      <line id="Line_442" data-name="Line 442" x2="10.074" y2="20.677" transform="translate(30.468 19.161)" fill="none" stroke="#adadad" stroke-width="1"/>
      <path id="Path_15065" data-name="Path 15065" d="M8.653,1.968A14.5,14.5,0,1,1,1.968,21.355,14.5,14.5,0,0,1,8.653,1.968Z" fill="none" stroke="#adadad" stroke-width="1"/>
      <path id="Path_15066" data-name="Path 15066" d="M32.653,1.968a14.5,14.5,0,1,1-6.685,19.387A14.5,14.5,0,0,1,32.653,1.968Z" fill="none" stroke="#adadad" stroke-width="1"/>
    </g>
  </g>
</svg>